<svg width="1024" height="44" viewBox="0 0 1024 44" fill="none" xmlns="http://www.w3.org/2000/svg">
<g clip-path="url(#clip0_1_954)">
<path d="M35.0729 17.5214C34.9799 17.5937 33.3481 18.5129 33.3481 20.5578C33.3481 22.9229 35.424 23.7595 35.486 23.7801C35.4757 23.8317 35.1555 24.9265 34.3912 26.0419C33.7096 27.0231 32.9969 28.0042 31.9125 28.0042C30.8281 28.0042 30.5492 27.3742 29.2995 27.3742C28.0808 27.3742 27.647 28.0249 26.6555 28.0249C25.664 28.0249 24.972 27.116 24.1768 26.0006C23.2576 24.6889 22.514 22.6543 22.514 20.723C22.514 17.6246 24.528 15.9824 26.5109 15.9824C27.5644 15.9824 28.4422 16.6744 29.1032 16.6744C29.7332 16.6744 30.7144 15.9411 31.9124 15.9411C32.3669 15.9412 33.9988 15.9826 35.0729 17.5214V17.5214ZM31.3445 14.6296C31.8402 14.0409 32.1914 13.225 32.1914 12.4091C32.1914 12.2955 32.1811 12.1819 32.1604 12.0889C31.3548 12.1199 30.3943 12.626 29.8159 13.2973C29.3615 13.8137 28.938 14.6296 28.938 15.4559C28.938 15.5798 28.9587 15.7038 28.969 15.7451C29.0206 15.7554 29.1033 15.7658 29.1859 15.7658C29.9089 15.7657 30.8177 15.2803 31.3445 14.6296V14.6296Z" fill="white"/>
</g>
<g clip-path="url(#clip1_1_954)">
<path fill-rule="evenodd" clip-rule="evenodd" d="M103.318 20.4629C104.32 20.4629 104.988 21.2009 105.011 22.3199H101.531C101.607 21.2009 102.31 20.4629 103.318 20.4629ZM106.072 23.1349V22.7479C106.072 20.7849 105.035 19.5719 103.33 19.5719C101.595 19.5719 100.482 20.8609 100.482 22.8479C100.482 24.8459 101.578 26.1109 103.33 26.1109C104.713 26.1109 105.697 25.4429 105.99 24.3649H104.982C104.718 24.9219 104.168 25.2209 103.353 25.2209C102.281 25.2209 101.584 24.4299 101.531 23.1819V23.1349H106.072ZM96.5249 19.6839H97.4849V20.6209H97.5789C97.7669 20.0059 98.4929 19.5719 99.3309 19.5719C99.4949 19.5719 99.7059 19.5839 99.8349 19.6019V20.6089C99.7529 20.5859 99.3899 20.5509 99.1909 20.5509C98.2299 20.5509 97.5319 21.6489 97.5319 22.0859V25.9999H96.5249V19.6839ZM92.2549 25.2029C91.0599 25.2029 90.3859 24.3359 90.3859 22.8419C90.3859 21.3419 91.0599 20.4809 92.2549 20.4809C93.4509 20.4809 94.1249 21.3419 94.1249 22.8419C94.1249 24.3359 93.4509 25.2029 92.2549 25.2029ZM92.2549 19.5719C90.4569 19.5719 89.3429 20.8089 89.3429 22.8419C89.3429 24.8689 90.4569 26.1109 92.2549 26.1109C94.0539 26.1109 95.1679 24.8689 95.1679 22.8419C95.1679 20.8089 94.0539 19.5719 92.2549 19.5719ZM86.7769 18.0969V19.7319H88.1839V20.5749H86.7769V24.1499C86.7769 24.8939 87.0589 25.2099 87.7149 25.2099C87.8969 25.2099 87.9959 25.2039 88.1839 25.1869V26.0359C87.9849 26.0709 87.7909 26.0949 87.5919 26.0949C86.2909 26.0949 85.7699 25.6139 85.7699 24.4069V20.5749H84.7499V19.7319H85.7699V18.0969H86.7769ZM78.6739 23.7909C78.8029 24.6759 79.6469 25.2379 80.8479 25.2379C81.9849 25.2379 82.8229 24.6229 82.8229 23.7849C82.8229 23.0649 82.2959 22.6079 81.1299 22.3149L80.0459 22.0329C78.5159 21.6469 77.8539 20.9549 77.8539 19.7539C77.8539 18.3179 79.0549 17.3459 80.8419 17.3459C82.4769 17.3459 83.6959 18.3179 83.7839 19.6839H82.7229C82.5769 18.8169 81.8619 18.3009 80.8069 18.3009C79.6819 18.3009 78.9379 18.8629 78.9379 19.7189C78.9379 20.3809 79.4009 20.7619 80.5669 21.0609L81.4519 21.2949C83.2039 21.7339 83.9069 22.4139 83.9069 23.6559C83.9069 25.2089 82.6819 26.1989 80.7489 26.1989C78.9559 26.1989 77.7189 25.2499 77.6079 23.7909H78.6739Z" fill="white"/>
</g>
<g clip-path="url(#clip2_1_954)">
<path d="M155.656 25.9987V19.5417H155.586L152.92 25.9987H152.029L149.363 19.5417H149.293V25.9987H148.308V17.5436H149.533L152.427 24.5983H152.521L155.416 17.5436H156.64V25.9987H155.656ZM158.172 24.2291C158.172 23.0982 159.004 22.4479 160.475 22.36L162.297 22.2487V21.6745C162.297 20.8952 161.811 20.4675 160.868 20.4675C160.112 20.4675 159.585 20.7546 159.444 21.2527H158.424C158.559 20.239 159.555 19.5711 160.903 19.5711C162.444 19.5711 163.305 20.3621 163.305 21.6746V25.9988H162.344V25.067H162.251C161.84 25.7408 161.149 26.11 160.305 26.11C159.081 26.11 158.172 25.3834 158.172 24.2291ZM162.297 23.6432V23.0631L160.598 23.1744C159.637 23.2389 159.215 23.5728 159.215 24.2056C159.215 24.8501 159.76 25.2251 160.493 25.2251C161.53 25.2252 162.297 24.5455 162.297 23.6432V23.6432ZM169.255 21.6159C169.091 20.9889 168.535 20.4792 167.627 20.4792C166.49 20.4792 165.775 21.3874 165.775 22.8171C165.775 24.2761 166.502 25.2019 167.627 25.2019C168.476 25.2019 169.068 24.8093 169.255 24.0945H170.275C170.093 25.2547 169.15 26.1101 167.632 26.1101C165.863 26.1101 164.732 24.8269 164.732 22.8171C164.732 20.8483 165.857 19.571 167.626 19.571C169.162 19.571 170.099 20.4909 170.275 21.6159H169.255Z" fill="white"/>
</g>
<path fill-rule="evenodd" clip-rule="evenodd" d="M226.207 23.7002C226.207 24.6022 225.439 25.2822 224.402 25.2822C223.67 25.2822 223.125 24.9072 223.125 24.2622C223.125 23.6302 223.547 23.2962 224.508 23.2312L226.207 23.1202V23.7002ZM224.812 19.6282C223.465 19.6282 222.469 20.2962 222.334 21.3092H223.353C223.494 20.8112 224.021 20.5242 224.777 20.5242C225.721 20.5242 226.207 20.9522 226.207 21.7312V22.3052L224.385 22.4172C222.914 22.5052 222.082 23.1552 222.082 24.2862C222.082 25.4402 222.99 26.1672 224.215 26.1672C225.059 26.1672 225.75 25.7982 226.16 25.1242H226.254V26.0552H227.215V21.7312C227.215 20.4192 226.353 19.6282 224.812 19.6282V19.6282ZM231.581 25.2032C230.426 25.2032 229.735 24.3182 229.735 22.8422C229.735 21.3712 230.432 20.4802 231.581 20.4802C232.723 20.4802 233.438 21.3942 233.438 22.8422C233.438 24.3012 232.729 25.2032 231.581 25.2032ZM233.415 17.1762V20.6792H233.327C232.969 19.9882 232.225 19.5722 231.346 19.5722C229.741 19.5722 228.692 20.8612 228.692 22.8422C228.692 24.8282 229.729 26.1112 231.346 26.1112C232.219 26.1112 232.969 25.6952 233.368 24.9922H233.461V26.0002H234.422V17.1762H233.415ZM218.021 22.0452H216.158V18.4822H218.021C219.246 18.4822 219.92 19.1212 219.92 20.2812C219.92 21.4002 219.223 22.0452 218.021 22.0452V22.0452ZM218.297 17.5452H215.103V26.0002H216.158V22.9822H218.285C219.873 22.9822 221.004 21.8632 221.004 20.2812C221.004 18.6702 219.896 17.5452 218.297 17.5452V17.5452ZM212.233 25.9992H213.241V19.6832H212.233V25.9992ZM212.034 17.7622C212.034 17.3752 212.35 17.0582 212.737 17.0582C213.124 17.0582 213.44 17.3752 213.44 17.7622C213.44 18.1482 213.124 18.4652 212.737 18.4652C212.35 18.4652 212.034 18.1482 212.034 17.7622V17.7622Z" fill="white"/>
<path fill-rule="evenodd" clip-rule="evenodd" d="M308.713 22.3203H312.193C312.17 21.2013 311.502 20.4633 310.5 20.4633C309.492 20.4633 308.789 21.2013 308.713 22.3203ZM313.172 24.3653C312.879 25.4433 311.895 26.1113 310.512 26.1113C308.76 26.1113 307.664 24.8453 307.664 22.8473C307.664 20.8613 308.777 19.5723 310.512 19.5723C312.217 19.5723 313.254 20.7853 313.254 22.7483V23.1343H308.713V23.1813C308.766 24.4293 309.463 25.2203 310.535 25.2203C311.35 25.2203 311.901 24.9223 312.164 24.3653H313.172ZM300.89 19.6833H301.851V20.6793H301.945C302.261 19.9823 302.877 19.5723 303.843 19.5723C305.261 19.5723 306.052 20.4103 306.052 21.9103V26.0003H305.045V22.1563C305.045 21.0193 304.564 20.4803 303.556 20.4803C302.548 20.4803 301.898 21.1543 301.898 22.2613V26.0003H300.89V19.6833ZM298.391 22.8413C298.391 21.3413 297.717 20.4803 296.522 20.4803C295.326 20.4803 294.652 21.3413 294.652 22.8413C294.652 24.3363 295.326 25.2033 296.522 25.2033C297.717 25.2033 298.391 24.3363 298.391 22.8413ZM293.609 22.8413C293.609 20.8083 294.723 19.5723 296.522 19.5723C298.32 19.5723 299.434 20.8083 299.434 22.8413C299.434 24.8693 298.32 26.1113 296.522 26.1113C294.723 26.1113 293.609 24.8693 293.609 22.8413ZM286.973 17.1753H287.981V20.6793H288.074C288.391 19.9823 289.053 19.5723 290.02 19.5723C291.356 19.5723 292.199 20.4273 292.199 21.9103V26.0003H291.192V22.1563C291.192 21.0373 290.688 20.4803 289.733 20.4803C288.602 20.4803 287.981 21.1953 287.981 22.2613V26.0003H286.973V17.1753ZM280.958 22.0453H282.821C284.023 22.0453 284.72 21.4003 284.72 20.2813C284.72 19.1213 284.046 18.4823 282.821 18.4823H280.958V22.0453ZM283.097 17.5453C284.696 17.5453 285.804 18.6703 285.804 20.2813C285.804 21.8633 284.673 22.9823 283.085 22.9823H280.958V26.0003H279.903V17.5453H283.097ZM276.983 25.9993H277.991V19.6833H276.983V25.9993ZM276.783 17.7613C276.783 17.3753 277.1 17.0583 277.486 17.0583C277.873 17.0583 278.19 17.3753 278.19 17.7613C278.19 18.1483 277.873 18.4653 277.486 18.4653C277.1 18.4653 276.783 18.1483 276.783 17.7613V17.7613Z" fill="white"/>
<path fill-rule="evenodd" clip-rule="evenodd" d="M383.732 17.1758H384.74V20.6798H384.834C385.15 19.9828 385.812 19.5718 386.779 19.5718C388.115 19.5718 388.959 20.4278 388.959 21.9098V25.9998H387.951V22.1558C387.951 21.0368 387.447 20.4808 386.492 20.4808C385.361 20.4808 384.74 21.1958 384.74 22.2618V25.9998H383.732V17.1758ZM381.312 21.6168C381.148 20.9898 380.591 20.4808 379.683 20.4808C378.546 20.4808 377.831 21.3888 377.831 22.8188C377.831 24.2778 378.558 25.2028 379.683 25.2028C380.532 25.2028 381.124 24.8108 381.312 24.0958H382.331C382.149 25.2558 381.206 26.1118 379.689 26.1118C377.919 26.1118 376.788 24.8278 376.788 22.8188C376.788 20.8498 377.913 19.5718 379.683 19.5718C381.218 19.5718 382.155 20.4918 382.331 21.6168H381.312ZM374.779 18.0488V19.6838H376.186V20.5278H374.779V24.1018C374.779 24.8458 375.061 25.1618 375.717 25.1618C375.899 25.1618 375.998 25.1558 376.186 25.1388V25.9888C375.986 26.0238 375.793 26.0468 375.594 26.0468C374.293 26.0468 373.772 25.5668 373.772 24.3598V20.5278H372.752V19.6838H373.772V18.0488H374.779ZM370.579 23.6448V23.0648L368.88 23.1758C367.919 23.2398 367.497 23.5738 367.497 24.2068C367.497 24.8518 368.042 25.2268 368.774 25.2268C369.812 25.2268 370.579 24.5468 370.579 23.6448V23.6448ZM366.454 24.2308C366.454 23.0998 367.286 22.4488 368.757 22.3618L370.579 22.2498V21.6758C370.579 20.8968 370.093 20.4688 369.149 20.4688C368.394 20.4688 367.866 20.7558 367.726 21.2538H366.706C366.841 20.2398 367.837 19.5718 369.185 19.5718C370.726 19.5718 371.587 20.3638 371.587 21.6758V25.9998H370.626V25.0688H370.532C370.122 25.7418 369.431 26.1118 368.587 26.1118C367.362 26.1118 366.454 25.3848 366.454 24.2308V24.2308ZM358.77 25.9998H357.774L355.471 17.5448H356.572L358.254 24.4178H358.324L360.217 17.5448H361.283L363.176 24.4178H363.246L364.928 17.5448H366.029L363.727 25.9998H362.731L360.785 19.3258H360.715L358.77 25.9998Z" fill="white"/>
<g clip-path="url(#clip3_1_954)">
<path fill-rule="evenodd" clip-rule="evenodd" d="M442.208 19.6836H443.169V20.6206H443.263C443.45 20.0056 444.177 19.5726 445.015 19.5726C445.179 19.5726 445.39 19.5836 445.519 19.6016V20.6096C445.437 20.5856 445.073 20.5506 444.874 20.5506C443.913 20.5506 443.216 21.1956 443.216 22.0856V25.9996H442.208V19.6836ZM470.343 19.5726C471.667 19.5726 472.587 20.2286 472.722 21.2656H471.726C471.591 20.7616 471.099 20.4276 470.337 20.4276C469.587 20.4276 469.001 20.8086 469.001 21.3706C469.001 21.8046 469.353 22.0746 470.097 22.2556L471.07 22.4906C472.259 22.7776 472.833 23.2926 472.833 24.2016C472.833 25.3316 471.738 26.1116 470.302 26.1116C468.896 26.1116 467.929 25.4376 467.818 24.3886H468.855C469.025 24.9216 469.529 25.2616 470.337 25.2616C471.187 25.2616 471.796 24.8576 471.796 24.2776C471.796 23.8436 471.468 23.5506 470.794 23.3866L469.71 23.1226C468.527 22.8356 467.988 22.3266 467.988 21.4126C467.988 20.3636 469.001 19.5726 470.343 19.5726V19.5726ZM463.678 25.2036C462.523 25.2036 461.832 24.3186 461.832 22.8416C461.832 21.3706 462.529 20.4806 463.678 20.4806C464.82 20.4806 465.535 21.3946 465.535 22.8416C465.535 24.3006 464.826 25.2036 463.678 25.2036V25.2036ZM465.512 17.1756V20.6796H465.424C465.066 19.9886 464.322 19.5726 463.443 19.5726C461.838 19.5726 460.789 20.8616 460.789 22.8416C460.789 24.8286 461.826 26.1116 463.443 26.1116C464.316 26.1116 465.066 25.6956 465.465 24.9926H465.559V25.9996H466.52V17.1756H465.512ZM456.511 25.2036C455.316 25.2036 454.642 24.3356 454.642 22.8416C454.642 21.3416 455.316 20.4806 456.511 20.4806C457.707 20.4806 458.38 21.3416 458.38 22.8416C458.38 24.3356 457.707 25.2036 456.511 25.2036ZM456.511 19.5726C454.712 19.5726 453.599 20.8086 453.599 22.8416C453.599 24.8696 454.712 26.1116 456.511 26.1116C458.31 26.1116 459.423 24.8696 459.423 22.8416C459.423 20.8086 458.31 19.5726 456.511 19.5726ZM439.44 25.9996H440.448V19.6836H439.44V25.9996ZM439.241 17.7616C439.241 17.3746 439.558 17.0586 439.944 17.0586C440.331 17.0586 440.647 17.3746 440.647 17.7616C440.647 18.1486 440.331 18.4646 439.944 18.4646C439.558 18.4646 439.241 18.1486 439.241 17.7616ZM433.104 22.6836L434.428 18.9106H434.521L435.846 22.6836H433.104ZM434.996 17.5446H433.953L430.836 25.9996H431.943L432.793 23.5796H436.156L437.006 25.9996H438.113L434.996 17.5446ZM449.864 22.0446H448V18.4826H449.864C451.088 18.4826 451.762 19.1216 451.762 20.2816C451.762 21.4006 451.065 22.0446 449.864 22.0446ZM450.139 17.5446H446.946V25.9996H448V22.9826H450.127C451.715 22.9826 452.846 21.8636 452.846 20.2816C452.846 18.6696 451.739 17.5446 450.139 17.5446V17.5446Z" fill="white"/>
</g>
<g clip-path="url(#clip4_1_954)">
<path d="M518.61 26V18.4941H515.885V17.5449H522.389V18.4941H519.665V26H518.61ZM526.341 26L523.224 17.5449H524.331L526.816 24.6347H526.91L529.394 17.5449H530.501L527.384 26H526.341ZM540.322 25.1562C539.602 25.789 538.611 26.1582 537.586 26.1582C535.904 26.1582 534.727 25.1621 534.727 23.7441C534.727 22.7421 535.271 21.9804 536.402 21.3828C536.479 21.3476 536.637 21.2656 536.73 21.2187C535.951 20.3984 535.67 19.8535 535.67 19.2382C535.67 18.1542 536.59 17.3456 537.826 17.3456C539.074 17.3456 539.982 18.1425 539.982 19.2499C539.982 20.1171 539.461 20.7499 538.154 21.4354L540.269 23.7088C540.533 23.1815 540.668 22.49 540.668 21.4354V21.2889H541.652V21.4412C541.652 22.7537 541.418 23.7088 540.955 24.4236L542.426 26H541.102L540.322 25.1562ZM535.781 23.6738C535.781 24.623 536.549 25.2676 537.68 25.2676C538.447 25.2676 539.238 24.9629 539.701 24.4766L537.311 21.8633C537.246 21.8867 537.094 21.9629 537.012 22.0039C536.197 22.4258 535.781 23.0117 535.781 23.6738ZM538.992 19.2852C538.992 18.629 538.518 18.1836 537.832 18.1836C537.158 18.1836 536.678 18.6406 536.678 19.2969C536.678 19.7657 536.918 20.1758 537.586 20.8379C538.617 20.3105 538.992 19.8887 538.992 19.2852V19.2852ZM552.51 26V22.1504H547.869V26H546.814V17.5449H547.869V21.2011H552.51V17.5449H553.564V26H552.51ZM555.155 22.8418C555.155 20.8086 556.269 19.5723 558.067 19.5723C559.866 19.5723 560.979 20.8086 560.979 22.8418C560.979 24.8691 559.866 26.1113 558.067 26.1113C556.269 26.1113 555.155 24.8691 555.155 22.8418ZM559.936 22.8418C559.936 21.3418 559.263 20.4805 558.067 20.4805C556.872 20.4805 556.198 21.3418 556.198 22.8418C556.198 24.3359 556.872 25.2031 558.067 25.2031C559.263 25.2031 559.936 24.3359 559.936 22.8418ZM562.442 19.6836H563.403V20.6797H563.497C563.784 19.9766 564.416 19.5723 565.26 19.5723C566.116 19.5723 566.713 20.0235 567.006 20.6797H567.1C567.44 20.0117 568.161 19.5723 569.034 19.5723C570.323 19.5723 571.044 20.3106 571.044 21.6348V26H570.036V21.8691C570.036 20.9375 569.596 20.4804 568.706 20.4804C567.827 20.4804 567.241 21.1366 567.241 21.9394V26H566.233V21.7109C566.233 20.9609 565.712 20.4804 564.915 20.4804C564.088 20.4804 563.45 21.1952 563.45 22.0859V26H562.442V19.6836H562.442ZM577.955 24.3652C577.662 25.4433 576.677 26.1113 575.294 26.1113C573.542 26.1113 572.447 24.8457 572.447 22.8476C572.447 20.8613 573.56 19.5722 575.294 19.5722C576.999 19.5722 578.037 20.7851 578.037 22.748V23.1347H573.496V23.1816C573.548 24.4296 574.246 25.2207 575.318 25.2207C576.132 25.2207 576.683 24.9219 576.947 24.3652H577.955ZM573.496 22.3203H576.976C576.953 21.2012 576.285 20.4629 575.283 20.4629C574.275 20.4629 573.572 21.2012 573.496 22.3203Z" fill="white"/>
</g>
<g clip-path="url(#clip5_1_954)">
<path d="M628.874 21.77C628.874 24.47 627.414 26.2 624.994 26.2C622.564 26.2 621.114 24.48 621.114 21.77C621.114 19.05 622.604 17.35 624.994 17.35C627.394 17.34 628.874 19.06 628.874 21.77ZM622.204 21.77C622.204 23.87 623.244 25.23 624.994 25.23C626.724 25.23 627.784 23.87 627.784 21.77C627.784 19.65 626.714 18.32 624.994 18.32C623.274 18.32 622.204 19.65 622.204 21.77ZM630.574 19.68H631.534V20.68H631.624C631.944 19.98 632.554 19.57 633.524 19.57C634.944 19.57 635.734 20.41 635.734 21.91V26H634.724V22.16C634.724 21.02 634.244 20.48 633.234 20.48C632.224 20.48 631.574 21.15 631.574 22.26V26H630.564V19.68H630.574ZM637.634 17.17H638.644V26H637.634V17.17ZM640.684 28.25V27.39C640.804 27.41 640.964 27.42 641.104 27.42C641.684 27.42 642.004 27.14 642.264 26.38L642.384 26L640.044 19.68H641.134L642.864 24.88H642.954L644.684 19.68H645.754L643.284 26.38C642.744 27.84 642.244 28.28 641.124 28.28C641.004 28.28 640.824 28.27 640.684 28.25ZM650.184 22.84C650.184 20.81 651.294 19.57 653.094 19.57C654.894 19.57 656.004 20.81 656.004 22.84C656.004 24.87 654.894 26.11 653.094 26.11C651.294 26.11 650.184 24.87 650.184 22.84ZM654.964 22.84C654.964 21.34 654.294 20.48 653.094 20.48C651.894 20.48 651.224 21.34 651.224 22.84C651.224 24.33 651.894 25.2 653.094 25.2C654.294 25.2 654.964 24.33 654.964 22.84ZM657.594 19.68H658.554V20.68H658.644C658.964 19.98 659.574 19.57 660.544 19.57C661.964 19.57 662.754 20.41 662.754 21.91V26H661.744V22.16C661.744 21.02 661.264 20.48 660.254 20.48C659.244 20.48 658.594 21.15 658.594 22.26V26H657.584L657.594 19.68ZM672.754 23.58H669.394L668.544 26H667.434L670.554 17.54H671.594L674.714 26H673.604L672.754 23.58ZM669.704 22.68H672.444L671.124 18.91H671.034L669.704 22.68ZM681.794 22.84C681.794 24.81 680.744 26.11 679.144 26.11C678.244 26.11 677.514 25.72 677.174 25.05H677.084V28.11H676.074V19.68H677.034V20.73H677.124C677.524 20 678.284 19.56 679.144 19.56C680.754 19.57 681.794 20.85 681.794 22.84ZM680.754 22.84C680.754 21.36 680.064 20.48 678.904 20.48C677.764 20.48 677.044 21.39 677.044 22.84C677.044 24.29 677.764 25.2 678.904 25.2C680.064 25.2 680.754 24.32 680.754 22.84ZM689.104 22.84C689.104 24.81 688.054 26.11 686.454 26.11C685.554 26.11 684.824 25.72 684.484 25.05H684.384V28.11H683.374V19.68H684.334V20.73H684.424C684.824 20 685.584 19.56 686.444 19.56C688.064 19.57 689.104 20.85 689.104 22.84ZM688.064 22.84C688.064 21.36 687.374 20.48 686.214 20.48C685.074 20.48 684.354 21.39 684.354 22.84C684.354 24.29 685.074 25.2 686.214 25.2C687.374 25.2 688.064 24.32 688.064 22.84ZM690.754 17.17H691.764V26H690.754V17.17ZM698.904 24.36C698.614 25.44 697.624 26.11 696.244 26.11C694.494 26.11 693.394 24.84 693.394 22.85C693.394 20.86 694.504 19.57 696.244 19.57C697.954 19.57 698.984 20.78 698.984 22.75V23.14H694.444V23.19C694.494 24.44 695.194 25.23 696.264 25.23C697.074 25.23 697.634 24.93 697.894 24.37L698.904 24.36ZM694.444 22.32H697.924C697.904 21.2 697.234 20.46 696.234 20.46C695.224 20.46 694.524 21.2 694.444 22.32Z" fill="white"/>
</g>
<g clip-path="url(#clip6_1_954)">
<path d="M746.387 23.5715H743.024L742.174 25.9914H741.067L744.184 17.5363H745.227L748.344 25.9914H747.236L746.387 23.5715ZM743.334 22.675H746.076L744.752 18.9016H744.658L743.334 22.675ZM753.433 21.6086C753.269 20.9816 752.712 20.4719 751.804 20.4719C750.667 20.4719 749.952 21.3801 749.952 22.8098C749.952 24.2688 750.679 25.1946 751.804 25.1946C752.653 25.1946 753.245 24.802 753.433 24.0872H754.452C754.271 25.2474 753.327 26.1028 751.81 26.1028C750.04 26.1028 748.909 24.8196 748.909 22.8098C748.909 20.841 750.034 19.5637 751.804 19.5637C753.339 19.5637 754.276 20.4836 754.452 21.6086H753.433ZM760.027 21.6086C759.863 20.9816 759.307 20.4719 758.399 20.4719C757.262 20.4719 756.547 21.3801 756.547 22.8098C756.547 24.2688 757.274 25.1946 758.399 25.1946C759.248 25.1946 759.84 24.802 760.027 24.0872H761.047C760.865 25.2474 759.922 26.1028 758.404 26.1028C756.635 26.1028 755.504 24.8196 755.504 22.8098C755.504 20.841 756.629 19.5637 758.398 19.5637C759.934 19.5637 760.871 20.4836 761.047 21.6086H760.027ZM767.607 24.3566C767.314 25.4347 766.33 26.1027 764.947 26.1027C763.195 26.1027 762.099 24.8371 762.099 22.839C762.099 20.8527 763.212 19.5636 764.947 19.5636C766.652 19.5636 767.689 20.7765 767.689 22.7394V23.1261H763.148V23.173C763.201 24.421 763.898 25.2121 764.97 25.2121C765.785 25.2121 766.336 24.9133 766.599 24.3566H767.607ZM763.148 22.3117H766.629C766.605 21.1926 765.937 20.4543 764.935 20.4543C763.927 20.4543 763.224 21.1926 763.148 22.3117ZM771.36 19.5637C772.684 19.5637 773.604 20.2199 773.739 21.2571H772.743C772.608 20.7532 772.116 20.4192 771.354 20.4192C770.604 20.4192 770.018 20.8001 770.018 21.3626C770.018 21.7962 770.37 22.0657 771.114 22.2474L772.087 22.4818C773.276 22.7689 773.85 23.2845 773.85 24.1927C773.85 25.3236 772.755 26.1029 771.319 26.1029C769.913 26.1029 768.946 25.4291 768.835 24.3802H769.872C770.042 24.9134 770.546 25.2532 771.354 25.2532C772.204 25.2532 772.813 24.8489 772.813 24.2688C772.813 23.8352 772.485 23.5422 771.811 23.3782L770.727 23.1145C769.544 22.8274 769.005 22.3176 769.005 21.4036C769.005 20.3547 770.018 19.5637 771.36 19.5637V19.5637ZM777.404 19.5637C778.728 19.5637 779.648 20.2199 779.783 21.2571H778.787C778.652 20.7532 778.16 20.4192 777.398 20.4192C776.648 20.4192 776.062 20.8001 776.062 21.3626C776.062 21.7962 776.414 22.0657 777.158 22.2474L778.131 22.4818C779.32 22.7689 779.894 23.2845 779.894 24.1927C779.894 25.3236 778.799 26.1029 777.363 26.1029C775.957 26.1029 774.99 25.4291 774.879 24.3802H775.916C776.086 24.9134 776.59 25.2532 777.398 25.2532C778.248 25.2532 778.857 24.8489 778.857 24.2688C778.857 23.8352 778.529 23.5422 777.855 23.3782L776.771 23.1145C775.588 22.8274 775.048 22.3176 775.048 21.4036C775.048 20.3547 776.062 19.5637 777.404 19.5637ZM781.04 22.8332C781.04 20.8 782.153 19.5637 783.952 19.5637C785.751 19.5637 786.864 20.8 786.864 22.8332C786.864 24.8605 785.751 26.1027 783.952 26.1027C782.153 26.1027 781.04 24.8605 781.04 22.8332ZM785.821 22.8332C785.821 21.3332 785.147 20.4719 783.952 20.4719C782.757 20.4719 782.083 21.3332 782.083 22.8332C782.083 24.3273 782.757 25.1945 783.952 25.1945C785.147 25.1945 785.821 24.3273 785.821 22.8332ZM788.326 19.675H789.287V20.6125H789.381C789.569 19.9973 790.295 19.5637 791.133 19.5637C791.297 19.5637 791.508 19.5754 791.637 19.593V20.6008C791.555 20.5774 791.192 20.5422 790.992 20.5422C790.032 20.5422 789.334 21.1867 789.334 22.0774V25.9915H788.326V19.675H788.326ZM792.601 17.7531C792.601 17.3664 792.917 17.05 793.304 17.05C793.691 17.05 794.007 17.3664 794.007 17.7531C794.007 18.1398 793.691 18.4562 793.304 18.4562C792.917 18.4562 792.601 18.1398 792.601 17.7531ZM792.8 19.675H793.808V25.9914H792.8V19.675ZM800.801 24.3566C800.508 25.4347 799.524 26.1027 798.141 26.1027C796.389 26.1027 795.293 24.8371 795.293 22.839C795.293 20.8527 796.406 19.5636 798.141 19.5636C799.846 19.5636 800.883 20.7765 800.883 22.7394V23.1261H796.342V23.173C796.395 24.421 797.092 25.2121 798.164 25.2121C798.979 25.2121 799.529 24.9133 799.793 24.3566H800.801ZM796.342 22.3117H799.822C799.799 21.1926 799.131 20.4543 798.129 20.4543C797.121 20.4543 796.418 21.1926 796.342 22.3117ZM804.554 19.5637C805.878 19.5637 806.798 20.2199 806.933 21.2571H805.937C805.802 20.7532 805.31 20.4192 804.548 20.4192C803.798 20.4192 803.212 20.8001 803.212 21.3626C803.212 21.7962 803.564 22.0657 804.308 22.2474L805.28 22.4818C806.47 22.7689 807.044 23.2845 807.044 24.1927C807.044 25.3236 805.948 26.1029 804.513 26.1029C803.107 26.1029 802.14 25.4291 802.029 24.3802H803.066C803.236 24.9134 803.739 25.2532 804.548 25.2532C805.398 25.2532 806.007 24.8489 806.007 24.2688C806.007 23.8352 805.679 23.5422 805.005 23.3782L803.921 23.1145C802.737 22.8274 802.198 22.3176 802.198 21.4036C802.198 20.3547 803.212 19.5637 804.554 19.5637V19.5637Z" fill="white"/>
</g>
<g clip-path="url(#clip7_1_954)">
<path fill-rule="evenodd" clip-rule="evenodd" d="M890.589 18.0337V19.6687H891.995V20.5127H890.589V24.0867C890.589 24.8307 890.87 25.1467 891.526 25.1467C891.708 25.1467 891.808 25.1407 891.995 25.1237V25.9727C891.796 26.0087 891.603 26.0317 891.403 26.0317C890.103 26.0317 889.581 25.5517 889.581 24.3447V20.5127H888.562V19.6687H889.581V18.0337H890.589ZM884.458 19.6687H885.419V20.6057H885.512C885.7 19.9907 886.426 19.5567 887.264 19.5567C887.428 19.5567 887.639 19.5687 887.768 19.5867V20.5947C887.686 20.5707 887.323 20.5357 887.124 20.5357C886.163 20.5357 885.465 21.1797 885.465 22.0707V25.9847H884.458V19.6687ZM881.995 22.8267C881.995 21.3267 881.321 20.4657 880.126 20.4657C878.931 20.4657 878.257 21.3267 878.257 22.8267C878.257 24.3207 878.931 25.1877 880.126 25.1877C881.321 25.1877 881.995 24.3207 881.995 22.8267ZM877.214 22.8267C877.214 20.7937 878.327 19.5567 880.126 19.5567C881.925 19.5567 883.038 20.7937 883.038 22.8267C883.038 24.8537 881.925 26.0967 880.126 26.0967C878.327 26.0967 877.214 24.8537 877.214 22.8267ZM875.106 22.8267C875.106 21.3497 874.414 20.4657 873.26 20.4657C872.117 20.4657 871.397 21.3737 871.397 22.8267C871.397 24.2737 872.117 25.1877 873.254 25.1877C874.414 25.1877 875.106 24.3037 875.106 22.8267ZM876.149 22.8267C876.149 24.8017 875.1 26.0967 873.494 26.0967C872.592 26.0967 871.865 25.7037 871.52 25.0357H871.426V28.0947H870.418V19.6687H871.379V20.7227H871.473C871.877 19.9967 872.633 19.5567 873.494 19.5567C875.106 19.5567 876.149 20.8407 876.149 22.8267V22.8267ZM868.101 22.8267C868.101 21.3497 867.41 20.4657 866.256 20.4657C865.113 20.4657 864.392 21.3737 864.392 22.8267C864.392 24.2737 865.113 25.1877 866.25 25.1877C867.41 25.1877 868.101 24.3037 868.101 22.8267ZM869.144 22.8267C869.144 24.8017 868.095 26.0967 866.49 26.0967C865.588 26.0967 864.861 25.7037 864.515 25.0357H864.422V28.0947H863.414V19.6687H864.375V20.7227H864.468C864.873 19.9967 865.629 19.5567 866.49 19.5567C868.101 19.5567 869.144 20.8407 869.144 22.8267V22.8267ZM861.499 25.9847H860.538V24.9947H860.444C860.128 25.6977 859.454 26.0967 858.487 26.0967C857.069 26.0967 856.331 25.2527 856.331 23.7587V19.6687H857.339V23.5127C857.339 24.6487 857.761 25.1767 858.769 25.1767C859.882 25.1767 860.491 24.5137 860.491 23.4067V19.6687H861.499V25.9847ZM849.809 23.7757C849.938 24.6607 850.781 25.2227 851.983 25.2227C853.119 25.2227 853.957 24.6077 853.957 23.7697C853.957 23.0497 853.43 22.5927 852.264 22.2997L851.18 22.0177C849.651 21.6317 848.988 20.9397 848.988 19.7387C848.988 18.3037 850.19 17.3307 851.977 17.3307C853.611 17.3307 854.83 18.3037 854.918 19.6687H853.858C853.711 18.8017 852.996 18.2857 851.942 18.2857C850.817 18.2857 850.072 18.8477 850.072 19.7037C850.072 20.3657 850.535 20.7467 851.701 21.0457L852.586 21.2797C854.338 21.7197 855.041 22.3987 855.041 23.6407C855.041 25.1937 853.817 26.1837 851.883 26.1837C850.09 26.1837 848.854 25.2347 848.742 23.7757H849.809Z" fill="white"/>
</g>
<g clip-path="url(#clip8_1_954)">
<path d="M939.199 27.343L935.699 23.843C936.58 22.7632 937.014 21.3859 936.909 19.9958C936.804 18.6057 936.169 17.309 935.135 16.3737C934.101 15.4385 932.748 14.9362 931.354 14.9706C929.96 15.005 928.633 15.5735 927.647 16.5586C926.66 17.5437 926.09 18.8702 926.054 20.2638C926.018 21.6574 926.518 23.0116 927.452 24.0466C928.386 25.0816 929.682 25.7183 931.072 25.825C932.462 25.9317 933.84 25.5003 934.921 24.62L938.421 28.12C938.472 28.1711 938.533 28.2116 938.599 28.2393C938.666 28.2669 938.738 28.2811 938.81 28.2811C938.882 28.2811 938.954 28.2669 939.02 28.2393C939.087 28.2116 939.148 28.1711 939.199 28.12C939.25 28.0689 939.29 28.0083 939.318 27.9415C939.346 27.8748 939.36 27.8032 939.36 27.731C939.36 27.6588 939.346 27.5872 939.318 27.5205C939.29 27.4537 939.25 27.3931 939.199 27.342V27.343ZM927.178 20.418C927.178 19.5638 927.431 18.7289 927.906 18.0188C928.381 17.3086 929.055 16.7552 929.845 16.4285C930.634 16.1017 931.502 16.0163 932.34 16.1831C933.178 16.3499 933.947 16.7613 934.551 17.3654C935.155 17.9694 935.566 18.739 935.733 19.5768C935.899 20.4145 935.814 21.2829 935.487 22.072C935.16 22.8612 934.606 23.5357 933.896 24.0102C933.186 24.4847 932.351 24.738 931.497 24.738C930.351 24.7369 929.253 24.2814 928.444 23.4715C927.634 22.6615 927.179 21.5633 927.178 20.418V20.418Z" fill="white"/>
</g>
<g clip-path="url(#clip9_1_954)">
<path fill-rule="evenodd" clip-rule="evenodd" d="M1000.97 25.9C1000.97 26.5 1000.47 27 999.869 27H991.069C990.469 27 989.969 26.5 989.969 25.9V18C989.969 17.5 990.469 17 991.069 17H999.969C1000.57 17 1001.07 17.5 1001.07 18.1V25.9H1000.97ZM995.469 14C996.669 14 997.569 14.9 997.769 16H993.169C993.369 14.9 994.269 14 995.469 14V14ZM999.869 16H998.769C998.569 14.3 997.169 13 995.469 13C993.769 13 992.369 14.3 992.169 16H991.069C989.869 16 988.969 16.9 988.969 18.1V26C988.969 27.1 989.869 28 991.069 28H999.969C1001.07 28 1002.07 27.1 1002.07 25.9V18C1001.97 16.9 1001.07 16 999.869 16V16Z" fill="white"/>
</g>
<defs>
<clipPath id="clip0_1_954">
<rect width="14" height="44" fill="white" transform="translate(22)"/>
</clipPath>
<clipPath id="clip1_1_954">
<rect width="30" height="44" fill="white" transform="translate(76.75)"/>
</clipPath>
<clipPath id="clip2_1_954">
<rect width="23" height="44" fill="white" transform="translate(147.5)"/>
</clipPath>
<clipPath id="clip3_1_954">
<rect width="43" height="44" fill="white" transform="translate(430.492)"/>
</clipPath>
<clipPath id="clip4_1_954">
<rect width="65" height="44" fill="white" transform="translate(514.234)"/>
</clipPath>
<clipPath id="clip5_1_954">
<rect width="80" height="44" fill="white" transform="translate(619.984)"/>
</clipPath>
<clipPath id="clip6_1_954">
<rect width="67" height="44" fill="white" transform="translate(740.727)"/>
</clipPath>
<clipPath id="clip7_1_954">
<rect width="44" height="44" fill="white" transform="translate(848.469)"/>
</clipPath>
<clipPath id="clip8_1_954">
<rect width="15" height="44" fill="white" transform="translate(925)"/>
</clipPath>
<clipPath id="clip9_1_954">
<rect width="13" height="44" fill="white" transform="translate(988.969)"/>
</clipPath>
</defs>
</svg>
